Coordinates
version=1
nRows=5
nColumns=42
inDegrees=yes

Units are S.I. units (second, meters, Newtons, ...)
If the header above contains a line with 'inDegrees', this indicates whether rotational values are in degrees (yes) or radians (no).

endheader
time	pelvis_tilt	pelvis_list	pelvis_rotation	pelvis_tx	pelvis_ty	pelvis_tz	hip_flexion_r	hip_adduction_r	hip_rotation_r	knee_angle_r	knee_adduction_r	knee_angle_r_beta	ankle_angle_r	subtalar_angle_r	mtp_angle_r	hip_flexion_l	hip_adduction_l	hip_rotation_l	knee_angle_l	knee_adduction_l	knee_angle_l_beta	ankle_angle_l	subtalar_angle_l	mtp_angle_l	lumbar_extension	lumbar_bending	lumbar_rotation	arm_flex_r	arm_add_r	arm_rot_r	elbow_flex_r	pro_sup_r	wrist_flex_r	wrist_dev_r	arm_flex_l	arm_add_l	arm_rot_l	elbow_flex_l	pro_sup_l	wrist_flex_l	wrist_dev_l
      1.16000000	     11.61656210	      0.51364377	     -4.65359543	     -0.25239536	      0.98647127	      0.26727665	      8.38912793	     -3.94063971	    -13.37870401	     45.64685831	     -6.57681510	      0.79668797	     18.25717138	      2.56965166	     -7.55747741	    -16.28522016	      5.89631250	    -14.92118966	      3.28923119	     -0.93924267	      0.05740791	     16.36287539	     26.88717518	     -7.55747741	    -25.79473008	      1.41973265	     -4.45641431	     -9.15944179	    -10.32073998	      6.64393262	     30.87753159	     90.00000001	      0.00000000	      0.00000000	      2.30540987	    -13.82267176	     -4.40670435	     43.03694334	     90.00000001	      0.00000000	      0.00000000
      1.17000000	     11.81428174	      0.22203145	     -4.38033635	     -0.23855329	      0.98567990	      0.26762483	      8.85363587	     -3.32297197	    -13.40785610	     42.23991774	     -5.97780977	      0.73722564	     18.13500133	      2.59289782	     -7.55515934	    -17.74984138	      5.54248579	    -14.88862997	      2.71023949	     -0.75230929	      0.04730260	     16.83434814	     27.31786316	     -7.55515934	    -26.01058295	      1.81572354	     -4.62148233	     -9.63245782	     -9.97743331	      6.22952853	     30.76859419	     90.00000001	      0.00000000	      0.00000000	      2.95145380	    -14.12705324	     -4.57144106	     43.85965926	     90.00000001	      0.00000000	      0.00000000
      1.18000000	     11.56487162	      0.29744700	     -4.28464726	     -0.22522831	      0.98372289	      0.26763498	      9.96804536	     -3.19736444	    -13.26039735	     38.99714035	     -5.26642915	      0.68062850	     18.03604233	      3.00317882	     -7.55373061	    -18.52737418	      5.69183705	    -14.75875510	      2.36559293	     -0.75991227	      0.04128739	     17.59439240	     27.68017238	     -7.55373061	    -25.75781875	      1.85132762	     -4.82504970	     -9.96814687	     -9.71201501	      6.05617206	     30.51941027	     90.00000001	      0.00000000	      0.00000000	      3.54126330	    -14.41013391	     -4.66425332	     44.70454141	     90.00000001	      0.00000000	      0.00000000
      1.19000000	     11.61701695	      0.23749074	     -4.13730931	     -0.21160198	      0.98191721	      0.26800080	     10.48040642	     -2.85796776	    -13.42180062	     35.26483584	     -4.78521419	      0.61548750	     17.82387374	      3.61966950	     -7.55192661	    -19.64873991	      5.62755016	    -14.82185758	      2.09714422	     -0.69263092	      0.03660207	     18.25801069	     28.09713953	     -7.55192661	    -25.82149322	      1.97544109	     -4.99608144	    -10.32172954	     -9.39070012	      5.74231137	     30.36276196	     90.00000001	      0.00000000	      0.00000000	      4.16030666	    -14.71503973	     -4.78471819	     45.53562168	     90.00000001	      0.00000000	      0.00000000
      1.20000000	     11.18064424	      0.69023580	     -4.19259969	     -0.19853908	      0.97890281	      0.26816554	     11.78289366	     -3.09625392	    -13.53201242	     31.87279170	     -4.41748830	      0.55628516	     17.48358939	      4.24899582	     -7.55116392	    -20.00339536	      6.28324676	    -14.86839158	      2.07275537	     -0.97083969	      0.03617641	     18.87153643	     28.16964816	     -7.55116392	    -25.36998751	      1.55133829	     -5.21337636	    -10.64586983	     -9.09491724	      5.68190752	     30.28995243	     90.00000001	      0.00000000	      0.00000000	      4.77468532	    -15.04825486	     -4.85122349	     46.26207407	     90.00000001	      0.00000000	      0.00000000
